<svg width="25" height="24" viewBox="0 0 25 24" fill="none" xmlns="http://www.w3.org/2000/svg">
<path fill-rule="evenodd" clip-rule="evenodd" d="M12.1006 0C8.84159 0 8.43359 0.014 7.15359 0.072C2.79559 0.272 0.373586 2.69 0.173586 7.052C0.114586 8.333 0.100586 8.741 0.100586 12C0.100586 15.259 0.114586 15.668 0.172586 16.948C0.372586 21.306 2.79059 23.728 7.15259 23.928C8.43359 23.986 8.84159 24 12.1006 24C15.3596 24 15.7686 23.986 17.0486 23.928C21.4026 23.728 23.8306 21.31 24.0276 16.948C24.0866 15.668 24.1006 15.259 24.1006 12C24.1006 8.741 24.0866 8.333 24.0286 7.053C23.8326 2.699 21.4116 0.273 17.0496 0.073C15.7686 0.014 15.3596 0 12.1006 0ZM12.1006 2.163C15.3046 2.163 15.6846 2.175 16.9506 2.233C20.2026 2.381 21.7216 3.924 21.8696 7.152C21.9276 8.417 21.9386 8.797 21.9386 12.001C21.9386 15.206 21.9266 15.585 21.8696 16.85C21.7206 20.075 20.2056 21.621 16.9506 21.769C15.6846 21.827 15.3066 21.839 12.1006 21.839C8.89659 21.839 8.51659 21.827 7.25159 21.769C3.99159 21.62 2.48059 20.07 2.33259 16.849C2.27459 15.584 2.26259 15.205 2.26259 12C2.26259 8.796 2.27559 8.417 2.33259 7.151C2.48159 3.924 3.99659 2.38 7.25159 2.232C8.51759 2.175 8.89659 2.163 12.1006 2.163ZM5.93859 12C5.93859 8.597 8.69759 5.838 12.1006 5.838C15.5036 5.838 18.2626 8.597 18.2626 12C18.2626 15.404 15.5036 18.163 12.1006 18.163C8.69759 18.163 5.93859 15.403 5.93859 12ZM12.1006 16C9.89159 16 8.10059 14.21 8.10059 12C8.10059 9.791 9.89159 8 12.1006 8C14.3096 8 16.1006 9.791 16.1006 12C16.1006 14.21 14.3096 16 12.1006 16ZM17.0656 5.595C17.0656 4.8 17.7106 4.155 18.5066 4.155C19.3016 4.155 19.9456 4.8 19.9456 5.595C19.9456 6.39 19.3016 7.035 18.5066 7.035C17.7106 7.035 17.0656 6.39 17.0656 5.595Z" fill="#FEFCF7"/>
</svg>
