<svg width="25" height="20" viewBox="0 0 25 20" fill="none" xmlns="http://www.w3.org/2000/svg">
<path d="M24.1003 2.55705C23.2173 2.94905 22.2683 3.21305 21.2723 3.33205C22.2893 2.72305 23.0703 1.75805 23.4373 0.608047C22.4863 1.17205 21.4323 1.58205 20.3103 1.80305C19.4133 0.846047 18.1323 0.248047 16.7163 0.248047C13.5373 0.248047 11.2013 3.21405 11.9193 6.29305C7.82834 6.08805 4.20034 4.12805 1.77134 1.14905C0.481342 3.36205 1.10234 6.25705 3.29434 7.72305C2.48834 7.69705 1.72834 7.47605 1.06534 7.10705C1.01134 9.38805 2.64634 11.522 5.01434 11.997C4.32134 12.185 3.56234 12.229 2.79034 12.081C3.41634 14.037 5.23434 15.46 7.39034 15.5C5.32034 17.123 2.71234 17.848 0.100342 17.54C2.27934 18.937 4.86834 19.752 7.64834 19.752C16.7903 19.752 21.9553 12.031 21.6433 5.10605C22.6053 4.41105 23.4403 3.54405 24.1003 2.55705Z" fill="#FEFCF7"/>
</svg>
